if (_typeface_js && _typeface_js.loadFace) _typeface_js.loadFace({"glyphs":{"S":{"x_min":-24.5,"x_max":884.71875,"ha":922,"o":"m 464 -18 b 884 311 720 -18 884 106 l 884 313 b 477 627 884 509 721 581 b 351 690 377 647 351 663 l 351 693 b 420 733 351 716 372 733 b 706 637 509 733 616 704 l 861 856 b 431 990 751 945 615 990 b 27 662 168 990 27 847 l 27 659 b 428 347 27 454 215 391 b 560 283 530 326 560 311 l 560 280 b 479 238 560 254 536 238 b 145 352 367 238 249 272 l -24 145 b 464 -18 96 37 270 -18 "},"/":{"x_min":-65.328125,"x_max":781.28125,"ha":750,"o":"m -65 -177 l 178 -177 l 781 1108 l 537 1108 l -65 -177 "},"K":{"x_min":54.4375,"x_max":1020.828125,"ha":1014,"o":"m 54 0 l 372 0 l 372 206 l 454 308 l 641 0 l 1020 0 l 681 550 l 1014 972 l 643 972 l 372 608 l 372 972 l 54 972 l 54 0 "},"7":{"x_min":32.671875,"x_max":813.953125,"ha":846,"o":"m 54 0 l 400 0 l 813 727 l 813 972 l 32 972 l 32 704 l 466 704 l 54 0 "},"d":{"x_min":24.5,"x_max":873.828125,"ha":939,"o":"m 344 -17 b 564 93 457 -17 514 37 l 564 0 l 873 0 l 873 1014 l 564 1014 l 564 672 b 341 776 517 726 454 776 b 24 376 166 776 24 617 l 24 373 b 344 -17 24 141 164 -17 m 447 241 b 323 378 377 241 323 301 l 323 380 b 447 517 323 457 377 517 b 571 380 518 517 571 455 l 571 378 b 447 241 571 301 518 241 "},",":{"x_min":19.0625,"x_max":349.8125,"ha":392,"o":"m 43 -233 b 349 70 220 -225 349 -156 l 349 325 l 34 325 l 34 5 l 157 5 b 19 -118 157 -65 107 -106 l 43 -233 "},"Y":{"x_min":-21.78125,"x_max":1015.390625,"ha":1014,"o":"m 337 0 l 656 0 l 656 348 l 1015 972 l 662 972 l 498 652 l 334 972 l -21 972 l 337 344 l 337 0 "},"E":{"x_min":54.4375,"x_max":873.828125,"ha":924,"o":"m 54 0 l 873 0 l 873 266 l 367 266 l 367 372 l 833 372 l 833 606 l 367 606 l 367 705 l 867 705 l 867 972 l 54 972 l 54 0 "},"y":{"x_min":4.078125,"x_max":886.078125,"ha":906,"o":"m 306 -226 b 628 52 477 -226 556 -145 l 886 758 l 571 758 l 453 358 l 323 758 l 4 758 l 295 29 b 245 18 279 20 262 18 b 108 68 216 18 164 36 l 19 -147 b 306 -226 102 -194 198 -226 "},"\"":{"x_min":14.96875,"x_max":754.0625,"ha":769,"o":"m 392 418 l 558 418 l 754 965 l 754 972 l 428 972 l 392 418 m 14 418 l 181 418 l 377 965 l 377 972 l 51 972 l 14 418 "},"‹":{"x_min":25.859375,"x_max":446.4375,"ha":474,"o":"m 234 28 l 446 136 l 269 372 l 446 608 l 234 717 l 25 433 l 25 311 l 234 28 "},"˙":{"x_min":212.328125,"x_max":468.21875,"ha":694,"o":"m 212 805 l 468 805 l 468 1013 l 212 1013 l 212 805 "},"„":{"x_min":19.0625,"x_max":720.03125,"ha":767,"o":"m 420 -238 b 720 65 597 -230 720 -155 l 720 319 l 411 319 l 411 0 l 528 0 b 396 -123 528 -70 484 -112 l 420 -238 m 43 -238 b 343 65 220 -230 343 -155 l 343 319 l 34 319 l 34 0 l 151 0 b 19 -123 151 -70 107 -112 l 43 -238 "},"g":{"x_min":25,"x_max":874.328125,"ha":939,"o":"m 442 -225 b 777 -113 608 -225 711 -181 b 874 191 845 -44 874 51 l 874 758 l 565 758 l 565 677 b 338 776 510 734 446 776 b 25 423 166 776 25 635 l 25 420 b 355 72 25 211 163 72 b 570 176 459 72 528 127 l 570 154 b 393 -12 570 48 509 -12 b 125 59 291 -12 208 15 l 30 -130 b 442 -225 150 -191 278 -225 m 448 302 b 324 419 373 302 324 354 l 324 422 b 448 542 324 488 372 542 b 572 424 523 542 572 490 l 572 422 b 448 302 572 355 524 302 "},"–":{"x_min":40.828125,"x_max":677.828125,"ha":733,"o":"m 40 311 l 677 311 l 677 563 l 40 563 l 40 311 "},"ƒ":{"x_min":13.609375,"x_max":760.859375,"ha":790,"o":"m 166 -20 b 485 258 363 -20 450 54 l 517 437 l 711 437 l 711 661 l 556 661 l 562 690 b 672 772 573 750 602 772 b 760 761 694 772 729 768 l 760 972 b 597 993 718 984 657 993 b 261 741 409 993 292 923 l 246 661 l 132 661 l 132 437 l 206 437 l 182 295 b 91 200 170 223 149 200 b 13 211 68 200 46 202 l 13 0 b 166 -20 72 -13 117 -20 "},"e":{"x_min":23.140625,"x_max":792.171875,"ha":831,"o":"m 431 -18 b 770 147 592 -18 696 50 l 604 281 b 453 204 555 230 509 204 b 313 305 386 204 334 238 l 790 305 b 792 358 792 322 792 341 b 405 776 792 588 669 776 b 23 377 182 776 23 604 l 23 375 b 431 -18 23 138 187 -18 m 308 444 b 406 558 318 513 355 558 b 510 444 461 558 503 516 l 308 444 "},"J":{"x_min":-8.171875,"x_max":722.75,"ha":783,"o":"m 348 -19 b 623 86 462 -19 558 19 b 722 373 694 158 722 245 l 722 972 l 412 972 l 412 368 b 323 255 412 300 377 255 b 200 340 272 255 236 287 l -8 161 b 348 -19 61 55 166 -19 "},"|":{"x_min":129.3125,"x_max":360.6875,"ha":500,"o":"m 129 -177 l 360 -177 l 360 1108 l 129 1108 l 129 -177 "},"˘":{"x_min":59.890625,"x_max":620.671875,"ha":694,"o":"m 340 802 b 620 1044 498 802 607 890 l 457 1044 b 340 966 441 997 408 966 b 223 1044 272 966 239 997 l 59 1044 b 340 802 73 890 182 802 "},"^":{"x_min":46.28125,"x_max":634.28125,"ha":694,"o":"m 46 687 l 255 687 l 338 794 l 421 687 l 634 687 l 443 970 l 236 970 l 46 687 "},"q":{"x_min":24.5,"x_max":873.828125,"ha":939,"o":"m 564 -221 l 873 -221 l 873 758 l 564 758 l 564 672 b 341 776 517 726 454 776 b 24 376 166 776 24 617 l 24 374 b 344 -17 24 142 164 -17 b 564 93 457 -17 514 38 l 564 -221 m 447 242 b 323 378 377 242 323 301 l 323 381 b 447 517 323 457 377 517 b 571 381 518 517 571 456 l 571 378 b 447 242 571 301 518 242 "},"b":{"x_min":46.28125,"x_max":895.609375,"ha":939,"o":"m 578 -17 b 895 382 754 -17 895 141 l 895 385 b 575 776 895 617 755 776 b 355 665 462 776 405 721 l 355 1014 l 46 1014 l 46 0 l 355 0 l 355 86 b 578 -17 402 32 465 -17 m 472 241 b 348 378 401 241 348 303 l 348 380 b 472 517 348 457 401 517 b 596 380 543 517 596 457 l 596 378 b 472 241 596 301 543 241 "},"D":{"x_min":54.4375,"x_max":986.8125,"ha":1040,"o":"m 54 0 l 408 0 b 986 491 793 0 986 204 l 986 494 b 419 972 986 781 797 972 l 54 972 l 54 0 m 372 283 l 372 688 l 426 688 b 665 487 571 688 665 627 l 665 484 b 426 283 665 344 571 283 l 372 283 "},"z":{"x_min":20.421875,"x_max":749.96875,"ha":782,"o":"m 20 0 l 749 0 l 749 247 l 446 247 l 749 561 l 749 758 l 32 758 l 32 511 l 322 511 l 20 197 l 20 0 "},"ˆ":{"x_min":47.640625,"x_max":632.921875,"ha":694,"o":"m 47 805 l 217 805 l 338 883 l 460 805 l 632 805 l 451 1044 l 228 1044 l 47 805 "},"w":{"x_min":1.359375,"x_max":1170.5625,"ha":1196,"o":"m 225 -5 l 483 -5 l 585 319 l 684 -5 l 943 -5 l 1170 758 l 879 758 l 800 450 l 709 761 l 462 761 l 372 452 l 296 758 l 1 758 l 225 -5 "},"$":{"x_min":8.171875,"x_max":917.390625,"ha":953,"o":"m 421 -136 l 563 -136 l 563 0 b 917 306 777 16 917 123 l 917 309 b 560 616 917 498 788 570 l 560 730 b 758 645 627 716 699 688 l 888 856 b 568 969 798 916 695 956 l 568 1052 l 427 1052 l 427 973 b 62 662 183 961 62 834 l 62 659 b 430 354 62 477 190 402 l 430 238 b 147 354 343 251 247 287 l 8 144 b 421 1 123 63 270 13 l 421 -136 m 432 630 b 341 688 362 643 341 659 l 341 691 b 432 743 341 719 366 741 l 432 630 m 558 229 l 558 341 b 645 284 627 329 645 313 l 645 281 b 558 229 645 252 620 233 "},"\\":{"x_min":-46.28125,"x_max":800.328125,"ha":750,"o":"m 556 -177 l 800 -177 l 197 1108 l -46 1108 l 556 -177 "},"’":{"x_min":21.78125,"x_max":352.53125,"ha":392,"o":"m 46 413 b 352 718 223 422 352 490 l 352 972 l 36 972 l 36 652 l 160 652 b 21 529 160 581 110 540 l 46 413 "},"~":{"x_min":46.28125,"x_max":634.28125,"ha":694,"o":"m 183 300 b 245 361 200 343 210 361 b 465 306 284 361 386 306 b 634 528 556 306 607 369 l 496 563 b 435 501 480 519 469 501 b 215 556 396 501 294 556 b 46 334 123 556 73 493 l 183 300 "},"-":{"x_min":40.828125,"x_max":514.5,"ha":567,"o":"m 40 308 l 514 308 l 514 566 l 40 566 l 40 308 "},"Q":{"x_min":32.984375,"x_max":1086.484375,"ha":1128,"o":"m 953 -29 l 1086 122 l 988 207 b 1072 486 1041 286 1072 382 l 1072 489 b 554 993 1072 771 848 993 b 32 486 260 993 32 768 l 32 483 b 551 -20 32 201 257 -20 b 848 66 663 -20 765 11 l 953 -29 m 554 257 b 354 480 430 257 354 365 l 354 483 b 551 705 354 597 430 705 b 754 482 675 705 754 597 l 754 479 b 747 422 754 459 751 440 l 645 515 l 512 362 l 620 268 b 554 257 600 261 577 257 "},"M":{"x_min":54.4375,"x_max":1127,"ha":1206,"o":"m 54 0 l 366 0 l 366 481 l 585 136 l 590 136 l 809 481 l 809 0 l 1127 0 l 1127 972 l 794 972 l 590 630 l 386 972 l 54 972 l 54 0 "},"C":{"x_min":32.671875,"x_max":977.28125,"ha":1004,"o":"m 526 -20 b 977 241 763 -20 896 97 l 714 393 b 534 270 675 320 624 270 b 356 486 430 270 356 359 l 356 488 b 534 701 356 605 427 701 b 707 583 622 701 672 652 l 970 740 b 539 993 890 888 748 993 b 32 486 254 993 32 776 l 32 483 b 526 -20 32 181 262 -20 "},"[":{"x_min":68.0625,"x_max":568.9375,"ha":625,"o":"m 68 -180 l 568 -180 l 568 12 l 330 12 l 330 779 l 568 779 l 568 972 l 68 972 l 68 -180 "},"L":{"x_min":54.4375,"x_max":820.75,"ha":853,"o":"m 54 0 l 820 0 l 820 277 l 372 277 l 372 972 l 54 972 l 54 0 "},"!":{"x_min":47.640625,"x_max":393.359375,"ha":450,"o":"m 142 302 l 298 302 l 393 763 l 393 972 l 47 972 l 47 763 l 142 302 m 62 0 l 378 0 l 378 250 l 62 250 l 62 0 "}," ":{"x_min":0,"x_max":0,"ha":353},"{":{"x_min":26,"x_max":643.9375,"ha":681,"o":"m 600 -194 l 643 -26 b 471 120 496 -1 471 33 b 475 213 471 140 475 184 b 313 400 475 315 419 373 b 475 586 419 426 475 484 b 471 679 475 615 471 659 b 643 826 471 766 496 801 l 600 994 b 202 733 306 970 202 895 b 207 623 202 712 207 647 b 34 494 207 520 140 494 l 26 494 l 26 305 l 34 305 b 207 176 140 305 207 279 b 202 66 207 152 202 87 b 600 -194 202 -95 306 -170 "},"X":{"x_min":-12.25,"x_max":1008.578125,"ha":1017,"o":"m -12 0 l 343 0 l 495 252 l 646 0 l 1008 0 l 686 497 l 994 972 l 639 972 l 500 740 l 363 972 l 1 972 l 310 494 l -12 0 "},"P":{"x_min":54.4375,"x_max":909.21875,"ha":942,"o":"m 54 0 l 372 0 l 372 263 l 476 263 b 909 623 733 263 909 388 l 909 626 b 483 972 909 856 736 972 l 54 972 l 54 0 m 372 495 l 372 712 l 460 712 b 594 605 544 712 594 676 l 594 602 b 458 495 594 533 540 495 l 372 495 "},"%":{"x_min":33.890625,"x_max":1241.109375,"ha":1301,"o":"m 293 440 b 553 712 449 440 553 563 l 553 715 b 293 987 553 863 453 987 b 33 715 134 987 33 863 l 33 712 b 293 440 33 563 138 440 m 148 0 l 353 0 l 1126 972 l 921 972 l 148 0 m 981 -15 b 1241 256 1136 -15 1241 108 l 1241 259 b 981 531 1241 408 1140 531 b 721 259 821 531 721 408 l 721 256 b 981 -15 721 108 826 -15 m 293 616 b 223 712 258 616 223 654 l 223 715 b 293 811 223 775 254 811 b 364 715 331 811 364 773 l 364 712 b 293 616 364 652 329 616 m 981 161 b 910 256 945 161 910 198 l 910 259 b 981 355 910 319 941 355 b 1051 259 1019 355 1051 318 l 1051 256 b 981 161 1051 197 1016 161 "},"#":{"x_min":32.671875,"x_max":935.078125,"ha":988,"o":"m 112 0 l 326 0 l 355 166 l 503 166 l 475 0 l 688 0 l 717 166 l 892 166 l 892 434 l 762 434 l 779 543 l 935 543 l 935 811 l 824 811 l 852 972 l 638 972 l 611 811 l 462 811 l 490 972 l 276 972 l 249 811 l 74 811 l 74 543 l 204 543 l 186 434 l 32 434 l 32 166 l 141 166 l 112 0 m 387 425 l 409 554 l 577 554 l 555 425 l 387 425 "},"_":{"x_min":-2.71875,"x_max":819.390625,"ha":833,"o":"m -2 -222 l 819 -222 l 819 -61 l -2 -61 l -2 -222 "},"+":{"x_min":83.03125,"x_max":788.078125,"ha":889,"o":"m 295 123 l 575 123 l 575 351 l 788 351 l 788 626 l 575 626 l 575 854 l 295 854 l 295 626 l 83 626 l 83 351 l 295 351 l 295 123 "},"‚":{"x_min":19.0625,"x_max":349.8125,"ha":392,"o":"m 43 -238 b 349 65 220 -230 349 -162 l 349 319 l 34 319 l 34 0 l 157 0 b 19 -123 157 -70 107 -112 l 43 -238 "},")":{"x_min":25.859375,"x_max":564.859375,"ha":618,"o":"m 148 -196 b 564 398 406 -61 564 102 b 148 993 564 694 406 858 l 25 806 b 265 398 191 690 265 567 b 25 -9 265 229 191 106 l 148 -196 "},"'":{"x_min":14.96875,"x_max":383.828125,"ha":392,"o":"m 14 418 l 187 418 l 383 965 l 383 972 l 51 972 l 14 418 "},"}":{"x_min":23.0625,"x_max":641,"ha":681,"o":"m 66 -194 b 464 66 360 -170 464 -95 b 459 176 464 87 459 152 b 632 305 459 279 526 305 l 641 305 l 641 494 l 632 494 b 459 623 526 494 459 520 b 464 733 459 647 464 712 b 66 994 464 895 360 970 l 23 826 b 195 679 170 801 195 766 b 191 586 195 659 191 615 b 353 400 191 484 247 426 b 191 213 247 373 191 315 b 195 120 191 184 195 140 b 23 -26 195 33 170 -1 l 66 -194 "},"‰":{"x_min":33.890625,"x_max":1801.890625,"ha":1874,"o":"m 293 440 b 553 712 449 440 553 563 l 553 715 b 293 987 553 863 453 987 b 33 715 134 987 33 863 l 33 712 b 293 440 33 563 138 440 m 148 0 l 353 0 l 1126 972 l 921 972 l 148 0 m 1541 -15 b 1801 256 1697 -15 1801 108 l 1801 259 b 1541 531 1801 408 1701 531 b 1281 259 1382 531 1281 408 l 1281 256 b 1541 -15 1281 108 1386 -15 m 981 -15 b 1241 256 1136 -15 1241 108 l 1241 259 b 981 531 1241 408 1140 531 b 721 259 821 531 721 408 l 721 256 b 981 -15 721 108 826 -15 m 293 616 b 223 712 258 616 223 654 l 223 715 b 293 811 223 775 254 811 b 364 715 331 811 364 773 l 364 712 b 293 616 364 652 329 616 m 1541 161 b 1471 256 1506 161 1471 198 l 1471 259 b 1541 355 1471 319 1502 355 b 1612 259 1580 355 1612 318 l 1612 256 b 1541 161 1612 197 1577 161 m 981 161 b 910 256 945 161 910 198 l 910 259 b 981 355 910 319 941 355 b 1051 259 1019 355 1051 318 l 1051 256 b 981 161 1051 197 1016 161 "},"˛":{"x_min":198.921875,"x_max":531.03125,"ha":694,"o":"m 531 -227 l 531 -94 b 411 -26 450 -95 411 -66 b 418 13 411 -11 413 2 l 228 13 b 198 -84 205 -22 198 -55 b 531 -227 198 -193 310 -255 "},"a":{"x_min":17.921875,"x_max":784.234375,"ha":842,"o":"m 261 -17 b 475 76 354 -17 423 19 l 475 0 l 784 0 l 784 431 b 706 672 784 541 762 615 b 392 770 641 738 543 770 b 79 715 262 770 164 748 l 133 505 b 339 548 198 531 262 548 b 476 438 434 548 476 508 l 476 426 b 301 454 443 440 363 454 b 17 218 128 454 17 369 l 17 215 b 261 -17 17 65 118 -17 m 384 163 b 313 237 344 163 313 193 l 313 240 b 408 324 313 287 347 324 b 479 312 434 324 461 319 l 479 280 b 384 163 479 208 438 163 "},"T":{"x_min":17.6875,"x_max":896.96875,"ha":933,"o":"m 298 0 l 616 0 l 616 697 l 896 697 l 896 972 l 17 972 l 17 697 l 298 697 l 298 0 "},"—":{"x_min":40.828125,"x_max":1181.453125,"ha":1247,"o":"m 40 311 l 1181 311 l 1181 563 l 40 563 l 40 311 "},"=":{"x_min":88.46875,"x_max":779.921875,"ha":886,"o":"m 88 545 l 779 545 l 779 818 l 88 818 l 88 545 m 88 159 l 779 159 l 779 431 l 88 431 l 88 159 "},"N":{"x_min":54.4375,"x_max":1007.21875,"ha":1083,"o":"m 54 0 l 370 0 l 370 448 l 724 0 l 1007 0 l 1007 972 l 691 972 l 691 543 l 352 972 l 54 972 l 54 0 "},"˚":{"x_min":144.28125,"x_max":536.28125,"ha":694,"o":"m 340 819 b 536 1009 443 819 536 906 l 536 1012 b 340 1200 536 1115 443 1200 b 144 1012 236 1200 144 1115 l 144 1009 b 340 819 144 906 236 819 m 340 911 b 243 1008 287 911 243 955 l 243 1011 b 340 1108 243 1063 287 1108 b 436 1011 393 1108 436 1063 l 436 1008 b 340 911 436 955 393 911 "},"⁄":{"x_min":-100.71875,"x_max":779.921875,"ha":724,"o":"m -100 -136 l 147 -136 l 779 1052 l 532 1052 l -100 -136 "},"2":{"x_min":21.78125,"x_max":826.203125,"ha":868,"o":"m 23 0 l 826 0 l 826 254 l 454 254 l 624 365 b 816 669 739 440 816 520 l 816 672 b 442 990 816 856 660 990 b 21 776 243 990 132 915 l 231 594 b 415 715 310 680 360 715 b 500 643 469 715 500 684 b 417 525 500 605 477 568 l 23 236 l 23 0 "},"j":{"x_min":-54.4375,"x_max":363.421875,"ha":419,"o":"m 43 812 l 363 812 l 363 1013 l 43 1013 l 43 812 m 68 -226 b 357 54 249 -226 357 -162 l 357 758 l 49 758 l 49 59 b -31 -30 49 -8 25 -30 b -54 -30 -38 -30 -49 -30 l -54 -215 b 68 -226 -21 -219 23 -226 "},"Z":{"x_min":24.5,"x_max":913.3125,"ha":956,"o":"m 24 0 l 913 0 l 913 266 l 481 266 l 913 744 l 913 972 l 40 972 l 40 705 l 455 705 l 24 227 l 24 0 "},"u":{"x_min":40.828125,"x_max":831.640625,"ha":896,"o":"m 295 -18 b 522 101 400 -18 475 38 l 522 0 l 831 0 l 831 758 l 522 758 l 522 359 b 434 257 522 294 480 257 b 349 359 387 257 349 294 l 349 758 l 40 758 l 40 258 b 295 -18 40 87 138 -18 "},"1":{"x_min":-10.890625,"x_max":514.5,"ha":586,"o":"m 201 0 l 514 0 l 514 979 l 273 979 l -10 900 l 46 659 l 201 694 l 201 0 "},"›":{"x_min":17.6875,"x_max":438.28125,"ha":474,"o":"m 230 28 l 438 311 l 438 433 l 230 717 l 17 608 l 194 372 l 17 136 l 230 28 "},"˜":{"x_min":46.28125,"x_max":634.28125,"ha":694,"o":"m 183 799 b 245 860 200 841 210 860 b 465 805 284 860 386 805 b 634 1026 556 805 607 868 l 496 1061 b 435 1000 480 1018 469 1000 b 215 1054 396 1000 294 1054 b 46 833 123 1054 73 991 l 183 799 "},"k":{"x_min":46.28125,"x_max":854.78125,"ha":853,"o":"m 46 0 l 355 0 l 355 127 l 416 208 l 524 0 l 854 0 l 617 450 l 850 758 l 514 758 l 355 525 l 355 1013 l 46 1013 l 46 0 "},"ˇ":{"x_min":47.640625,"x_max":632.921875,"ha":694,"o":"m 228 805 l 451 805 l 632 1044 l 462 1044 l 341 966 l 220 1044 l 47 1044 l 228 805 "},"<":{"x_min":84.390625,"x_max":778.5625,"ha":900,"o":"m 778 83 l 778 376 l 348 487 l 778 598 l 778 892 l 84 636 l 84 338 l 778 83 "},"t":{"x_min":16.328125,"x_max":583.921875,"ha":619,"o":"m 383 -16 b 581 26 458 -16 532 0 l 581 269 b 487 245 548 254 515 245 b 412 323 438 245 412 266 l 412 515 l 583 515 l 583 758 l 412 758 l 412 948 l 103 948 l 103 758 l 16 758 l 16 515 l 103 515 l 103 254 b 383 -16 103 69 201 -16 "},"W":{"x_min":0,"x_max":1513.5625,"ha":1544,"o":"m 311 -6 l 589 -6 l 756 476 l 924 -6 l 1201 -6 l 1513 972 l 1185 972 l 1050 505 l 896 975 l 622 975 l 468 505 l 333 972 l 0 972 l 311 -6 "},"v":{"x_min":0,"x_max":884.71875,"ha":903,"o":"m 300 -5 l 583 -5 l 884 758 l 564 758 l 443 377 l 323 758 l 0 758 l 300 -5 "},">":{"x_min":103.4375,"x_max":797.609375,"ha":900,"o":"m 103 83 l 797 338 l 797 636 l 103 892 l 103 598 l 533 487 l 103 376 l 103 83 "},"s":{"x_min":-6.8125,"x_max":696.890625,"ha":729,"o":"m 374 -18 b 696 243 575 -18 696 77 l 696 245 b 396 501 696 401 583 454 b 304 545 321 520 304 530 l 304 548 b 348 572 304 563 318 572 b 585 501 411 572 506 545 l 683 688 b 349 776 593 744 472 776 b 25 516 156 776 25 683 l 25 513 b 329 258 25 356 141 305 b 417 213 404 238 417 229 l 417 211 b 372 186 417 193 402 186 b 98 270 288 186 187 213 l -6 91 b 374 -18 99 19 230 -18 "},"B":{"x_min":53.65625,"x_max":947.90625,"ha":983,"o":"m 53 0 l 581 0 b 947 269 822 0 947 113 l 947 272 b 746 508 947 405 868 472 b 916 730 848 544 916 615 l 916 733 b 858 884 916 800 892 850 b 587 972 802 941 719 972 l 53 972 l 53 0 m 364 590 l 364 726 l 501 726 b 603 659 569 726 603 702 l 603 656 b 502 590 603 613 570 590 l 364 590 m 364 245 l 364 390 l 524 390 b 628 319 594 390 628 361 l 628 316 b 523 245 628 275 592 245 l 364 245 "},"…":{"x_min":34.03125,"x_max":1109.3125,"ha":1167,"o":"m 798 0 l 1109 0 l 1109 316 l 798 316 l 798 0 m 416 0 l 726 0 l 726 316 l 416 316 l 416 0 m 34 0 l 344 0 l 344 316 l 34 316 l 34 0 "},"?":{"x_min":0,"x_max":721.390625,"ha":746,"o":"m 253 302 l 442 302 l 458 395 b 721 691 613 441 721 518 l 721 694 b 371 988 721 872 574 988 b 0 848 206 988 87 927 l 147 623 b 340 711 213 676 288 711 b 420 656 392 711 420 688 l 420 655 b 231 559 420 611 375 579 l 215 543 l 253 302 m 185 0 l 500 0 l 500 250 l 185 250 l 185 0 "},"H":{"x_min":54.4375,"x_max":982.71875,"ha":1058,"o":"m 54 0 l 372 0 l 372 348 l 664 348 l 664 0 l 982 0 l 982 972 l 664 972 l 664 629 l 372 629 l 372 972 l 54 972 l 54 0 "},"c":{"x_min":23.140625,"x_max":770.390625,"ha":788,"o":"m 413 -19 b 770 187 590 -19 703 61 l 545 318 b 430 241 515 269 484 241 b 319 377 368 241 319 298 l 319 380 b 434 513 319 455 368 513 b 543 437 484 513 517 486 l 764 565 b 428 775 707 688 592 775 b 23 377 186 775 23 590 l 23 375 b 413 -19 23 162 187 -19 "},"&":{"x_min":12.046875,"x_max":956.34375,"ha":972,"o":"m 744 -19 l 946 132 l 829 247 b 956 451 873 306 914 374 l 761 544 b 674 401 733 493 705 443 l 588 486 b 760 737 693 542 760 628 l 760 740 b 462 993 760 885 646 993 b 154 724 274 993 154 871 l 154 721 b 213 540 154 661 171 603 b 12 265 73 478 12 382 l 12 262 b 371 -17 12 82 165 -17 b 658 69 480 -17 573 11 l 744 -19 m 450 614 b 407 715 422 651 407 682 l 407 718 b 467 792 407 762 432 792 b 524 726 501 792 524 767 l 524 724 b 450 614 524 682 503 642 m 417 203 b 327 281 363 203 327 233 l 327 283 b 375 368 327 314 341 343 l 507 231 b 417 203 477 214 446 203 "},"˝":{"x_min":16.328125,"x_max":683.28125,"ha":694,"o":"m 16 805 l 202 805 l 341 928 l 287 805 l 472 805 l 683 992 l 404 1072 l 374 1003 l 133 1072 l 16 805 "},"I":{"x_min":57.171875,"x_max":375.671875,"ha":442,"o":"m 57 0 l 375 0 l 375 972 l 57 972 l 57 0 "},"•":{"x_min":83.03125,"x_max":597.53125,"ha":694,"o":"m 340 226 b 597 487 481 226 597 344 l 597 490 b 340 751 597 633 481 751 b 83 490 198 751 83 633 l 83 487 b 340 226 83 344 198 226 "},"G":{"x_min":32.5,"x_max":988.015625,"ha":1047,"o":"m 567 -20 b 988 125 740 -20 884 38 l 988 575 l 526 575 l 526 366 l 689 366 l 689 269 b 581 247 665 255 635 247 b 353 479 447 247 353 341 l 353 481 b 567 711 353 613 443 711 b 778 626 646 711 715 680 l 956 845 b 557 993 853 937 721 993 b 32 486 257 993 32 776 l 32 483 b 567 -20 32 181 270 -20 "},"(":{"x_min":40.828125,"x_max":579.828125,"ha":618,"o":"m 457 -196 l 579 -9 b 340 398 413 106 340 229 b 579 806 340 567 413 690 l 457 993 b 40 398 198 858 40 694 b 457 -196 40 102 198 -61 "},"`":{"x_min":91.1875,"x_max":522.671875,"ha":694,"o":"m 315 805 l 522 805 l 392 1072 l 91 992 l 315 805 "},"U":{"x_min":46.28125,"x_max":988.171875,"ha":1056,"o":"m 514 -19 b 988 443 798 -19 988 111 l 988 972 l 664 972 l 664 433 b 517 268 664 315 602 268 b 370 440 431 268 370 319 l 370 972 l 46 972 l 46 436 b 514 -19 46 113 230 -19 "},"F":{"x_min":54.4375,"x_max":852.0625,"ha":890,"o":"m 54 0 l 372 0 l 372 318 l 818 318 l 818 570 l 372 570 l 372 694 l 852 694 l 852 972 l 54 972 l 54 0 "},"r":{"x_min":46.28125,"x_max":588,"ha":607,"o":"m 46 0 l 355 0 l 355 193 b 555 435 355 361 424 435 l 588 435 l 588 769 b 355 606 465 775 397 708 l 355 758 l 46 758 l 46 0 "},":":{"x_min":40.828125,"x_max":356.609375,"ha":406,"o":"m 40 438 l 356 438 l 356 758 l 40 758 l 40 438 m 40 0 l 356 0 l 356 319 l 40 319 l 40 0 "},"x":{"x_min":-9.53125,"x_max":818.03125,"ha":825,"o":"m -9 0 l 318 0 l 401 154 l 484 0 l 818 0 l 578 379 l 816 758 l 488 758 l 405 605 l 323 758 l -9 758 l 230 379 l -9 0 "},"*":{"x_min":6.8125,"x_max":564.859375,"ha":583,"o":"m 198 425 l 372 425 l 326 625 l 473 483 l 564 640 l 370 700 l 564 759 l 473 916 l 326 775 l 372 975 l 198 975 l 245 775 l 98 916 l 6 759 l 201 700 l 6 640 l 98 483 l 245 625 l 198 425 "},"†":{"x_min":38.15625,"x_max":519.84375,"ha":569,"o":"m 201 288 l 356 288 l 342 663 l 519 643 l 519 813 l 344 793 l 368 972 l 189 972 l 213 793 l 38 813 l 38 643 l 214 663 l 201 288 "},"V":{"x_min":-14.96875,"x_max":1063.03125,"ha":1069,"o":"m 371 -6 l 676 -6 l 1063 972 l 711 972 l 526 426 l 341 972 l -14 972 l 371 -6 "},"h":{"x_min":46.28125,"x_max":837.078125,"ha":896,"o":"m 46 0 l 355 0 l 355 398 b 443 501 355 463 397 501 b 528 398 490 501 528 463 l 528 0 l 837 0 l 837 499 b 582 776 837 670 739 776 b 355 656 477 776 402 719 l 355 1013 l 46 1013 l 46 0 "},"0":{"x_min":38.109375,"x_max":955.5,"ha":1014,"o":"m 495 -20 b 955 486 784 -20 955 218 l 955 488 b 498 993 955 756 786 993 b 38 486 209 993 38 754 l 38 483 b 495 -20 38 215 206 -20 m 498 261 b 353 486 412 261 353 352 l 353 488 b 495 711 353 622 409 711 b 639 486 581 711 639 619 l 639 483 b 498 261 639 350 583 261 "},".":{"x_min":34.03125,"x_max":349.8125,"ha":392,"o":"m 34 0 l 349 0 l 349 319 l 34 319 l 34 0 "},"”":{"x_min":21.78125,"x_max":722.75,"ha":769,"o":"m 423 413 b 722 718 600 422 722 497 l 722 972 l 413 972 l 413 652 l 530 652 b 398 529 530 581 487 540 l 423 413 m 46 413 b 345 718 223 422 345 497 l 345 972 l 36 972 l 36 652 l 153 652 b 21 529 153 581 110 540 l 46 413 "},"@":{"x_min":51.71875,"x_max":1241.328125,"ha":1319,"o":"m 658 -226 b 1019 -121 800 -226 914 -187 l 992 -77 b 658 -170 890 -138 793 -170 b 108 381 330 -170 108 68 b 661 937 108 692 333 937 b 1184 462 974 937 1184 719 b 1033 182 1184 278 1116 182 b 956 258 984 182 956 215 b 963 336 956 289 959 310 l 1024 680 l 764 720 l 747 626 b 570 736 713 686 653 736 b 272 363 405 736 272 564 b 521 73 272 189 377 73 b 720 193 602 73 664 116 b 932 66 751 121 813 66 b 1241 462 1079 66 1241 192 b 661 992 1241 746 1001 992 b 51 381 307 992 51 720 b 658 -226 51 42 303 -226 m 609 303 b 537 385 570 303 537 332 b 638 506 537 450 578 506 b 710 424 677 506 710 477 b 609 303 710 359 669 303 "},"f":{"x_min":16.328125,"x_max":577.109375,"ha":592,"o":"m 103 0 l 412 0 l 412 515 l 577 515 l 577 750 l 405 750 l 405 755 b 477 816 405 797 430 816 b 577 805 517 816 547 812 l 577 1002 b 387 1023 534 1015 479 1023 b 170 951 285 1023 220 1002 b 103 758 123 904 106 840 l 16 758 l 16 515 l 103 515 l 103 0 "},";":{"x_min":25.859375,"x_max":356.609375,"ha":406,"o":"m 40 438 l 356 438 l 356 758 l 40 758 l 40 438 m 50 -238 b 356 65 227 -230 356 -162 l 356 319 l 40 319 l 40 0 l 164 0 b 25 -123 164 -70 114 -112 l 50 -238 "},"“":{"x_min":31.3125,"x_max":732.28125,"ha":769,"o":"m 408 420 l 717 420 l 717 740 l 600 740 b 732 863 600 811 643 852 l 707 979 b 408 675 530 970 408 895 l 408 420 m 31 420 l 340 420 l 340 740 l 223 740 b 355 863 223 811 266 852 l 330 979 b 31 675 153 970 31 895 l 31 420 "},"i":{"x_min":43.5625,"x_max":363.421875,"ha":415,"o":"m 43 812 l 363 812 l 363 1013 l 43 1013 l 43 812 m 49 0 l 357 0 l 357 758 l 49 758 l 49 0 "},"6":{"x_min":37.875,"x_max":860,"ha":919,"o":"m 465 -20 b 860 340 676 -20 860 105 l 860 343 b 566 638 860 530 711 638 b 350 552 470 638 405 600 b 518 743 363 669 414 743 b 703 673 589 743 647 713 l 840 887 b 504 993 742 958 640 993 b 37 458 193 993 37 762 l 37 455 b 159 95 37 283 86 169 b 465 -20 229 23 320 -20 m 453 212 b 348 322 390 212 348 262 l 348 325 b 450 432 348 383 387 432 b 555 323 512 432 555 382 l 555 320 b 453 212 555 261 515 212 "},"A":{"x_min":-14.96875,"x_max":1103.859375,"ha":1111,"o":"m -14 0 l 325 0 l 374 130 l 707 130 l 758 0 l 1103 0 l 702 979 l 386 979 l -14 0 m 454 361 l 541 597 l 628 361 l 454 361 "},"‘":{"x_min":31.3125,"x_max":362.0625,"ha":392,"o":"m 31 420 l 347 420 l 347 740 l 223 740 b 362 863 223 811 273 852 l 337 979 b 31 675 160 970 31 902 l 31 420 "},"π":{"x_min":72.140625,"x_max":1057.578125,"ha":1153,"o":"m 563 -20 b 1057 486 839 -20 1057 212 l 1057 488 b 566 993 1057 762 842 993 b 72 486 289 993 72 759 l 72 483 b 563 -20 72 209 287 -20 m 563 34 b 129 483 315 34 129 237 l 129 486 b 566 937 129 731 317 937 b 1000 488 813 937 1000 734 l 1000 486 b 563 34 1000 240 812 34 m 359 227 l 534 227 l 534 372 l 592 372 b 828 568 732 372 828 441 l 828 570 b 594 762 828 698 735 762 l 359 762 l 359 227 m 534 500 l 534 619 l 582 619 b 656 561 628 619 656 600 l 656 558 b 581 500 656 520 626 500 l 534 500 "},"n":{"x_min":46.28125,"x_max":837.078125,"ha":896,"o":"m 46 0 l 355 0 l 355 399 b 443 502 355 464 397 502 b 528 399 490 502 528 464 l 528 0 l 837 0 l 837 500 b 582 777 837 671 739 777 b 355 653 477 777 402 715 l 355 758 l 46 758 l 46 0 "},"O":{"x_min":32.671875,"x_max":1072.5625,"ha":1128,"o":"m 551 -20 b 1072 486 845 -20 1072 204 l 1072 488 b 553 993 1072 770 847 993 b 32 486 259 993 32 768 l 32 483 b 551 -20 32 201 257 -20 m 553 266 b 353 486 431 266 353 370 l 353 488 b 551 705 353 602 430 705 b 751 486 673 705 751 601 l 751 483 b 553 266 751 369 675 266 "},"3":{"x_min":-2.578125,"x_max":827.703125,"ha":863,"o":"m 437 -20 b 827 305 648 -20 827 95 l 827 308 b 592 584 827 461 735 545 l 805 748 l 805 972 l 73 972 l 73 719 l 427 719 l 217 550 l 260 405 l 394 405 b 520 327 479 405 520 375 l 520 325 b 411 247 520 279 481 247 b 186 352 332 247 257 284 l -2 154 b 437 -20 102 44 241 -20 "},"]":{"x_min":43.5625,"x_max":544.4375,"ha":625,"o":"m 43 -180 l 544 -180 l 544 972 l 43 972 l 43 779 l 281 779 l 281 12 l 43 12 l 43 -180 "},"m":{"x_min":46.28125,"x_max":1308.03125,"ha":1376,"o":"m 46 0 l 355 0 l 355 402 b 441 502 355 465 396 502 b 522 402 485 502 522 465 l 522 0 l 831 0 l 831 402 b 917 502 831 465 872 502 b 999 402 962 502 999 465 l 999 0 l 1308 0 l 1308 500 b 1050 777 1308 671 1210 777 b 798 652 936 777 861 724 b 579 777 758 732 680 777 b 355 657 477 777 402 720 l 355 758 l 46 758 l 46 0 "},"9":{"x_min":41.015625,"x_max":863.125,"ha":919,"o":"m 398 -20 b 863 516 697 -20 863 197 l 863 519 b 747 873 863 686 816 803 b 437 993 675 947 585 993 b 41 628 216 993 41 859 l 41 625 b 340 323 41 441 178 323 b 551 414 426 323 498 359 b 384 229 540 294 486 229 b 183 303 313 229 246 254 l 46 93 b 398 -20 141 22 253 -20 m 450 532 b 344 641 388 532 344 579 l 344 644 b 447 759 344 708 385 759 b 554 643 510 759 554 707 l 554 640 b 450 532 554 580 513 532 "},"l":{"x_min":49,"x_max":357.96875,"ha":415,"o":"m 49 0 l 357 0 l 357 1013 l 49 1013 l 49 0 "},"8":{"x_min":14.28125,"x_max":843.875,"ha":875,"o":"m 429 -18 b 843 268 675 -18 843 98 l 843 270 b 672 504 843 394 769 463 b 811 715 744 541 811 608 l 811 718 b 429 990 811 877 654 990 b 46 718 203 990 46 877 l 46 715 b 185 504 46 608 113 541 b 14 270 82 461 14 388 l 14 268 b 429 -18 14 100 182 -18 m 429 580 b 329 675 370 580 329 620 l 329 677 b 429 769 329 726 369 769 b 528 677 488 769 528 726 l 528 675 b 429 580 528 620 487 580 m 429 206 b 318 304 355 206 318 255 l 318 306 b 429 401 318 359 362 401 b 539 306 495 401 539 359 l 539 304 b 429 206 539 256 502 206 "},"p":{"x_min":46.28125,"x_max":895.609375,"ha":939,"o":"m 46 -222 l 355 -222 l 355 86 b 578 -17 402 32 465 -17 b 895 381 754 -17 895 141 l 895 384 b 575 775 895 616 755 775 b 355 664 462 775 405 720 l 355 757 l 46 757 l 46 -222 m 472 241 b 348 377 401 241 348 302 l 348 380 b 472 516 348 456 401 516 b 596 380 543 516 596 456 l 596 377 b 472 241 596 301 543 241 "},"4":{"x_min":-5.4375,"x_max":928.28125,"ha":957,"o":"m 504 0 l 813 0 l 813 168 l 928 168 l 928 397 l 813 397 l 813 979 l 460 979 l -5 395 l 46 168 l 504 168 l 504 0 m 302 393 l 504 651 l 504 393 l 302 393 "},"‡":{"x_min":51.71875,"x_max":533.5625,"ha":597,"o":"m 202 0 l 382 0 l 357 179 l 533 158 l 533 329 l 353 308 l 377 486 l 353 663 l 533 643 l 533 813 l 357 793 l 382 972 l 202 972 l 227 793 l 51 813 l 51 643 l 231 663 l 208 486 l 231 308 l 51 329 l 51 158 l 227 179 l 202 0 "},"R":{"x_min":54.46875,"x_max":984.109375,"ha":993,"o":"m 54 0 l 372 0 l 372 277 l 438 277 l 441 277 l 620 0 l 984 0 l 762 330 b 950 627 877 387 950 486 l 950 630 b 862 861 950 730 920 802 b 519 972 796 929 688 972 l 54 972 l 54 0 m 372 509 l 372 700 l 511 700 b 632 606 585 700 632 669 l 632 604 b 510 509 632 544 586 509 l 372 509 "},"o":{"x_min":23.140625,"x_max":858.859375,"ha":900,"o":"m 439 -18 b 858 379 684 -18 858 165 l 858 381 b 442 776 858 595 686 776 b 23 379 197 776 23 593 l 23 376 b 439 -18 23 162 196 -18 m 442 244 b 319 379 374 244 319 304 l 319 381 b 439 513 319 454 370 513 b 562 379 507 513 562 454 l 562 376 b 442 244 562 304 511 244 "},"5":{"x_min":-5.4375,"x_max":833,"ha":875,"o":"m 409 -20 b 833 332 651 -20 833 107 l 833 335 b 514 642 833 539 672 642 b 333 589 439 642 383 621 l 340 715 l 790 715 l 790 972 l 103 972 l 76 467 l 268 369 b 413 430 313 405 355 430 b 525 337 480 430 525 394 l 525 335 b 405 242 525 282 481 242 b 170 347 328 242 251 280 l -5 139 b 409 -20 100 42 224 -20 "}}}
